<?xml version="1.0" encoding="utf-8"?>
<!-- Generator: Adobe Illustrator 21.0.0, SVG Export Plug-In . SVG Version: 6.00 Build 0)  -->
<svg version="1.1" id="Layer_1" xmlns="http://www.w3.org/2000/svg" xmlns:xlink="http://www.w3.org/1999/xlink" x="0px" y="0px"
	 viewBox="0 0 172.1 75.3" style="enable-background:new 0 0 172.1 75.3;" xml:space="preserve">
<style type="text/css">
	.st0{fill:#FFFFFF;}
	.st1{clip-path:url(#SVGID_2_);fill:url(#SVGID_3_);}
	.st2{fill:#004B84;}
</style>
<g>
	<path class="st0" d="M91.3,63.6c0-2.2,1.5-3.9,3.2-3.9c2.1,0,3.9,2.5,3.9,5.3c0,2.5-1.7,4.1-3.2,4.1C93,69.1,91.3,66.7,91.3,63.6
		 M89.4,64.5c0,3,2.4,5.3,5.6,5.3c3,0,5.4-2.3,5.4-5.3s-2.4-5.3-5.5-5.3C92.2,59.1,89.4,61,89.4,64.5"/>
	<path class="st0" d="M112.1,69.6l-3-7.2l-3,7.2h-0.7l-3.8-8.5c-0.4-0.8-0.4-1.2-1.6-1.3v-0.5h4.3v0.5c-1.5,0.1-1.3,0.5-0.7,1.7
		l2.7,6.1l2.5-5.9c-0.6-1.3-1-1.8-1.9-1.9l-0.3-0.1v-0.5h4.6v0.5c-1.2,0-1.3,0.4-0.8,1.7l2.5,6l2.4-5.9c0.6-1.3,0.4-1.8-1.2-1.8
		v-0.5h3.6v0.5c-1,0.1-1.2,0.6-1.8,1.8l-3.3,8L112.1,69.6L112.1,69.6z"/>
	<path class="st0" d="M124.6,62.3c0.6-2.4,1.9-2.7,2.7-2.7c1.2,0,2.2,1.1,2.5,2.7H124.6z M131.9,63c0,0-0.8-3.9-4.2-3.9
		c-3.1,0-4.9,2.7-4.9,5.4c0,2.9,1.9,5.2,4.4,5.2c1.9,0,3.5-1.3,4.5-2.6l-0.3-0.3c-1,1.1-2,1.7-3.2,1.7c-2,0-3.9-1.8-3.9-4.4
		c0-0.3,0.1-0.7,0.1-1.1L131.9,63L131.9,63z"/>
	<path class="st0" d="M151.3,63c0,1.7-1,3-2.4,3c-1.9,0-2.7-2-2.7-3.5c0-2.4,1.5-2.9,2.5-2.9C150.2,59.6,151.3,60.8,151.3,63
		 M151.8,60.1c-0.7-0.7-1.7-1-2.8-1c-2.5,0-4.5,1.7-4.5,3.9c0,1.4,0.9,2.5,2.4,3.1c-0.9,0.7-2.6,0.7-2.6,1.9c0,0.8,1,1.7,2.4,1.8
		c-1.3,0.5-2.7,1.6-2.7,3.1c0,1.2,1.3,2.4,3.9,2.4c4.7,0,6.9-2.5,6.9-4.2c0-0.5-0.2-1.2-0.8-1.8c-0.8-0.8-1.8-0.9-4.6-0.9
		c-2.5,0-3.6-0.3-3.6-0.9s1.1-0.9,1.5-1.3c0.5,0.2,0.7,0.2,1.2,0.2c2.8,0,4.4-1.8,4.4-3.7c0-0.8-0.3-1.3-0.4-1.6
		c1.7-0.3,1.6-1.3,1.6-1.3L151.8,60.1L151.8,60.1z M145.6,72.1c0-1,0.9-1.8,1.6-2.2c0.7,0.1,3.9,0.1,4.6,0.2
		c0.9,0.1,1.7,0.6,1.7,1.5c0,1.6-2,3-4.2,3C147.2,74.6,145.6,73.3,145.6,72.1"/>
	<path class="st0" d="M156.5,62.3c0.6-2.4,1.9-2.7,2.7-2.7c1.2,0,2.2,1.1,2.5,2.7H156.5z M163.8,63c0,0-0.8-3.9-4.2-3.9
		c-3.1,0-4.9,2.7-4.9,5.4c0,2.9,1.9,5.2,4.4,5.2c1.9,0,3.4-1.3,4.5-2.6l-0.3-0.3c-1,1.1-2,1.7-3.2,1.7c-2,0-3.9-1.8-3.9-4.4
		c0-0.3,0.1-0.7,0.1-1.1L163.8,63L163.8,63z"/>
	<path class="st0" d="M19.7,67.4c0,1,0.5,1.5,1.5,1.5h0.1v0.5h-5.1v-0.5c0.3,0,0.2,0,0.5,0c1-0.1,1.3-0.7,1.3-1.7V55.6
		c0-0.7-0.1-1.2-0.9-1l-0.7,0.2v-0.4l2.9-1h0.4L19.7,67.4L19.7,67.4z"/>
	<path class="st0" d="M56.9,67.4c0,1,0.5,1.5,1.5,1.5h0.1v0.5h-5.1v-0.5c0.3,0,0.2,0,0.5,0c1-0.1,1.3-0.7,1.3-1.7V55.6
		c0-0.7-0.1-1.2-0.9-1l-0.7,0.2v-0.4l2.9-1h0.4V67.4L56.9,67.4z"/>
	<path class="st0" d="M121.2,67.4c0,1,0.5,1.5,1.5,1.5h0.1v0.5h-5.1v-0.5c0.3,0,0.2,0,0.5,0c1-0.1,1.3-0.7,1.3-1.7V55.6
		c0-0.7-0.1-1.2-0.9-1l-0.7,0.2v-0.4l2.9-1h0.4V67.4L121.2,67.4z"/>
	<path class="st0" d="M23.3,63.6c0-2.2,1.5-3.9,3.2-3.9c2.1,0,3.9,2.5,3.9,5.4c0,2.5-1.7,4.1-3.2,4.1C25.1,69.1,23.3,66.7,23.3,63.6
		 M21.4,64.5c0,3,2.4,5.3,5.6,5.3c3,0,5.4-2.3,5.4-5.3s-2.4-5.3-5.5-5.3C24.3,59.1,21.4,61,21.4,64.5"/>
	<path class="st0" d="M35.5,61.4c1.1-0.8,2.1-1.2,2.8-1.2c2,0,3.5,1.9,3.5,4.4s-1.4,4.3-3.5,4.3c-1.9,0-2.8-1.4-2.8-2.7V61.4
		L35.5,61.4z M35.5,53.3h-0.4l-2.7,1v0.4l0.5-0.1c0.9-0.1,0.9,0.2,0.9,1.5v13.1c1.6,0.3,2.6,0.5,3.8,0.5c3.4,0,5.9-2.5,5.9-5.7
		c0-2.7-1.9-4.9-4.2-4.9c-0.9,0-2,0.5-3.8,1.8L35.5,53.3L35.5,53.3z"/>
	<path class="st0" d="M50,67.7c-2.7,2.2-3.9,0.5-4.1-0.4c-0.2-1,0.2-2.6,1.8-3.2c0.6-0.3,1.7-0.6,2.3-0.8V67.7z M45.8,62.2
		c0.5-0.5,0.6-1,0.6-1.1c0-0.5,0.8-1.2,1.6-1.2c0.6,0,1.1,0.3,1.5,0.7c0.4,0.5,0.4,0.9,0.4,1.6v0.7c-2.6,0.5-5.8,1-5.8,4.5
		c0,1.2,1.2,2.4,2.8,2.4c0.7,0,1.2-0.1,3-1.5c0,0.4,0.1,1.5,1.2,1.5c0.5,0,0.9,0,2-1L53,68.4c-0.7,0.5-1.4,1.1-1.4-2.3v-3.4
		c0-1.3,0-1.6-0.4-2.2c-0.7-1-2-1.3-2.8-1.3c-1.7,0-3.9,2.1-3.9,2.9C44.7,62.7,45.5,62.4,45.8,62.2"/>
	<path class="st0" d="M14.9,62.6H9.8v0.5h0.9c1.5,0,2,0.5,2,1.9v3.2c-1.4,0.7-2.7,1-3.9,1c-2.9,0-6.6-2.3-6.6-7.5
		c0-4.1,2.3-7.8,6.7-7.8c2.4,0,4.5,1,5.2,4.2h0.5V54h-0.4c-0.2,0.1-0.4,0.2-0.6,0.2c-0.5,0-2.3-0.9-5-0.9c-6.2,0-8.9,4.8-8.9,8.6
		c0,3.7,2.6,8,8.1,8c1.1,0,4.3-0.3,6.8-1.6L14.9,62.6L14.9,62.6z"/>
	<path class="st0" d="M89.4,68.9c-1,0-1.3-0.3-1.3-1c0-1-0.1-1.7-0.1-5c0-2.5-1-3.8-2.7-3.8c-1.2,0-2.7,0.9-4.4,2v-2h-0.4l-2.6,1.1
		v0.4l0.5-0.1c0.9-0.2,0.8,0.6,0.8,1.5v5.3c0,0.7-0.3,1.3-0.9,1.5c-0.7,0.2-1.2-0.3-1.5-0.6c-0.3-0.3-0.6-0.7-1.1-1.2L70,59.6l0,0
		l5.2-4.7c0.7-0.6,1.4-0.8,3-0.8v-0.5h-6v0.5c1.4,0,1.6,0.3,1.4,0.8c-0.1,0.4-1.2,1.4-1.2,1.4L67,61.2v-4.6l0,0v-0.4
		c0-1.5,0.4-2,2-2h0.3v-0.5h-6.2v0.5h0.1c1.3,0,2,0.3,2,1.8v11.1c0,1.3-0.4,1.9-2,1.9h-0.1v0.5h6.3V69l0,0c-1.6,0-2.3-0.5-2.3-2.1
		v-3.7l0,0v-0.9l1.6-1.4l5.4,6.9c0.1,0.2,0.2,0.3,0.2,0.4c0,0.5-0.2,0.7-1.3,0.7v0.5h4.8h2.3h2.5v-0.5c-1.4,0-1.4-0.3-1.4-1.7v-5.5
		c1.3-0.9,2.6-1.6,3.4-1.6c1,0,2,0.6,2,2.7c0,3.4,0.3,5.2-0.2,5.7C86.1,68.8,86,69,85.3,69v0.5h4.5L89.4,68.9L89.4,68.9z"/>
	<path class="st0" d="M142.5,53.3h-0.4l-2.7,1v0.4l0.5-0.1c0.8-0.1,0.9,0.1,0.9,1.1l0,0v3.7c-3.4-1.1-8,0.6-8,5.3c0,3.2,2.6,5,5.9,5
		c1.1,0,2.1-0.2,3.8-0.5V56.1C142.5,56,142.5,53.3,142.5,53.3 M140.8,66.3c0,1.3-0.8,2.7-2.8,2.7c-2.1,0-3.5-1.8-3.5-4.3
		c0-4.4,4-5.6,6.3-4.7V66.3L140.8,66.3z"/>
	<g>
		<g>
			<g>
				<defs>
					<path id="SVGID_1_" d="M12.6,22.4c0,9.9,8.1,18,18,18s18-8.1,18-18c0-10-8.1-18-18-18C20.7,4.4,12.6,12.4,12.6,22.4"/>
				</defs>
				<clipPath id="SVGID_2_">
					<use xlink:href="#SVGID_1_"  style="overflow:visible;"/>
				</clipPath>
				
					<radialGradient id="SVGID_3_" cx="-907.94" cy="-201.4719" r="1" gradientTransform="matrix(21.8864 0 0 -21.8864 19908.0527 -4394.042)" gradientUnits="userSpaceOnUse">
					<stop  offset="0" style="stop-color:#F9F2E9"/>
					<stop  offset="0.2584" style="stop-color:#F9F2E9"/>
					<stop  offset="0.9382" style="stop-color:#BB850E"/>
					<stop  offset="1" style="stop-color:#BB850E"/>
				</radialGradient>
				<rect x="12.6" y="4.4" class="st1" width="36" height="36"/>
			</g>
		</g>
	</g>
	<path class="st2" d="M18.7,41.3c3.5,1.3,7.6,2.1,12,2.1c4.5,0,8.7-0.8,12.2-2.2c-3.5,2.3-7.7,3.6-12.2,3.6S22.1,43.5,18.7,41.3"/>
	<path class="st2" d="M11.7,10.3c-1.3,3.5-2.1,7.6-2.1,12c0,4.5,0.8,8.7,2.2,12.2C9.5,31,8.2,26.8,8.2,22.3
		C8.2,17.9,9.5,13.8,11.7,10.3"/>
	<path class="st2" d="M50.3,11.6c0.6,1,1,2,1.4,3.1c0,0-1-2.2-10.8-3c0,0-0.4-3.2-0.5-3.9C40.5,7.8,48.7,8.9,50.3,11.6"/>
	<path class="st2" d="M31.2,21.5v-5c0,0,4.9-0.1,12.5,0.4s9,1.6,9,1.6c0.2,1.1,0.3,2.2,0.3,3.4c0,0-4.1-0.3-8.1-0.3L31.2,21.5
		L31.2,21.5z"/>
	<path class="st2" d="M20.8,27l0.2,4.7c0,0,1.4,0.5,15.4,0.1S52,29.1,52,29.1c0.4-1.1,0.6-2.3,0.8-3.5c0,0-0.5,0.8-6,1.1
		C41.3,27.1,32.2,27.4,20.8,27"/>
	<path class="st2" d="M48,36.6c0.4-0.3,1.6-2.1,2.3-3.3c0,0-3.3,3.6-20.2,3.6c-10.1,0-16-1.9-16-1.9c0.1,0.7,1.1,2.9,1.1,2.9
		c7.8,3.3,19.3,2.9,25.3,1.7C46.3,38.4,47.6,36.9,48,36.6"/>
	<path class="st2" d="M39.9,5.1C41.2,5.3,43.4,6,43.4,6c-1.3-3-2.7-3.6-2.7-3.6C39.8,2,39,1.6,38,1.3C38,1.2,39.2,2.1,39.9,5.1"/>
	<path class="st2" d="M35.8,12.5c0-1.5-0.3-7.1-0.7-9.3c-0.3-2.2-0.9-2.9-0.9-2.9C33.1,0.1,32,0,30.9,0c0,0,0.2,7.2,0.2,12.5
		C31.1,12.5,35.8,12.5,35.8,12.5z"/>
	<path class="st2" d="M20.7,22.7c0-8.5,0.5-13.2,1.3-17.2S24.1,1,24.1,1c1-0.3,2-0.5,3.1-0.7c0,0-0.6,0.6-0.9,2.6
		s-0.9,10.5-0.9,19.9L20.7,22.7z"/>
	<path class="st2" d="M13.1,31.6l3.3,0.6c-0.7-4.7-0.9-13.5,0.2-20.9S20,2.7,20,2.7c-1.2,0.7-3.1,1.9-3.5,2.3s-2.2,1.7-3.5,8.9
		C11.8,20.4,12.3,24.8,13.1,31.6"/>
	<path class="st0" d="M167.6,67.4c0-1.2,1-2.2,2.2-2.2s2.2,1,2.2,2.2s-1,2.2-2.2,2.2C168.6,69.6,167.6,68.6,167.6,67.4 M171.5,67.4
		c0-1-0.8-1.8-1.7-1.8s-1.7,0.8-1.7,1.8s0.8,1.8,1.7,1.8C170.8,69.2,171.5,68.5,171.5,67.4 M169,66.1h0.9c0.6,0,0.9,0.2,0.9,0.7
		c0,0.4-0.2,0.6-0.7,0.7l0.7,1.1h-0.5l-0.7-1.1h-0.3v1.1h-0.5L169,66.1L169,66.1z M169.4,67.2h0.4c0.3,0,0.5,0,0.5-0.4
		c0-0.3-0.3-0.3-0.5-0.3h-0.4V67.2L169.4,67.2z"/>
</g>
</svg>
